<?xml version="1.0" standalone="no"?>
<!DOCTYPE svg PUBLIC "-//W3C//DTD SVG 20010904//EN"
 "http://www.w3.org/TR/2001/REC-SVG-20010904/DTD/svg10.dtd">
<svg version="1.0" xmlns="http://www.w3.org/2000/svg"
 width="700.000000pt" height="700.000000pt" viewBox="0 0 700.000000 700.000000"
 preserveAspectRatio="xMidYMid meet">
<metadata>
Created by potrace 1.11, written by Peter Selinger 2001-2013
</metadata>
<g transform="translate(0.000000,700.000000) scale(0.100000,-0.100000)"
fill="#000000" stroke="none">
<path d="M2198 6995 c-1 -1 -32 -6 -68 -9 -358 -36 -745 -175 -1052 -379 -68
-45 -134 -91 -147 -102 -210 -174 -315 -280 -447 -455 -138 -181 -247 -379
-329 -595 -43 -115 -98 -301 -109 -375 -3 -19 -10 -62 -16 -95 -34 -200 -35
-538 -1 -735 16 -94 27 -151 36 -183 59 -221 110 -358 196 -527 77 -152 204
-346 284 -436 6 -6 29 -33 51 -60 223 -264 536 -489 879 -632 215 -90 291
-105 356 -72 55 29 79 77 84 175 7 121 15 197 31 290 9 50 18 104 21 120 15
95 96 364 140 465 9 19 22 51 30 70 9 19 33 70 54 113 35 72 38 84 37 163 0
72 -3 85 -17 83 -9 -1 -91 -1 -182 0 -155 1 -168 3 -199 24 -48 32 -72 69 -77
119 -9 79 46 152 130 172 l27 6 0 634 0 634 -35 6 c-79 15 -133 98 -120 184 5
37 15 55 46 83 48 45 61 47 261 45 123 -1 159 2 163 12 3 8 5 55 5 106 0 80 3
98 23 126 55 82 166 99 235 36 45 -40 55 -74 56 -183 l1 -102 50 -12 c241 -58
425 -282 426 -519 0 -113 -29 -226 -79 -309 l-20 -34 49 -38 c52 -42 124 -126
134 -159 6 -18 13 -15 93 34 163 101 351 190 536 255 89 32 284 85 341 95 17
2 55 9 85 15 82 15 211 29 325 36 86 4 113 14 151 54 57 60 56 107 -2 269
-214 598 -643 1075 -1218 1352 -225 110 -476 187 -691 215 -22 3 -56 8 -75 11
-39 5 -446 14 -452 9z"/>
<path d="M4862 6984 c-116 -59 -116 -228 1 -282 25 -12 66 -20 104 -21 34 -1
70 -4 80 -5 10 -2 45 -7 78 -11 32 -3 62 -8 65 -10 4 -2 20 -7 36 -10 316 -58
649 -310 861 -650 83 -132 215 -426 200 -442 -3 -2 -86 36 -185 86 -164 81
-185 89 -228 85 -82 -7 -144 -72 -144 -153 0 -51 11 -80 43 -111 34 -34 690
-361 736 -367 48 -6 104 19 134 59 38 50 348 674 354 712 16 99 -79 195 -177
179 -71 -11 -95 -37 -170 -184 -39 -76 -72 -139 -74 -139 -2 0 -22 47 -46 105
-50 125 -131 278 -208 395 -31 47 -58 87 -61 90 -3 3 -24 28 -46 55 -179 226
-442 423 -696 524 -89 35 -243 78 -314 87 -27 3 -53 8 -57 10 -3 2 -62 6 -130
9 -102 4 -129 2 -156 -11z"/>
<path d="M2229 5388 c0 -27 0 -233 0 -365 l1 -91 120 -1 c155 -1 192 5 248 43
87 59 128 187 91 280 -22 54 -68 104 -119 129 -46 23 -62 25 -195 26 -145 2
-145 2 -146 -21z"/>
<path d="M4355 4760 c-27 -4 -72 -10 -100 -14 -146 -20 -431 -99 -565 -158
-472 -206 -872 -554 -1124 -978 -152 -257 -264 -556 -302 -810 -3 -19 -7 -42
-9 -50 -2 -8 -7 -40 -10 -70 -3 -30 -8 -73 -10 -95 -6 -52 -6 -341 -1 -380 2
-16 7 -61 11 -100 23 -247 113 -542 245 -801 281 -554 777 -982 1367 -1180 76
-26 285 -79 343 -88 19 -3 69 -11 110 -17 152 -25 558 -15 710 16 14 3 39 8
55 11 67 12 125 27 230 59 690 209 1251 724 1523 1395 55 136 123 374 137 485
3 17 10 62 16 100 14 78 18 441 7 550 -7 62 -22 153 -44 265 -10 52 -49 188
-80 277 -132 384 -392 762 -704 1023 -36 30 -67 57 -70 61 -16 17 -187 134
-253 173 -208 123 -506 244 -667 272 -14 3 -38 9 -55 13 -27 8 -49 12 -145 26
-14 3 -41 7 -60 11 -50 9 -495 12 -555 4z m311 -1110 c37 -13 91 -68 100 -104
3 -12 6 -63 7 -112 l2 -89 160 -2 c195 -3 216 -6 260 -44 59 -52 70 -133 28
-201 -44 -71 -49 -72 -413 -74 -358 -2 -363 -3 -435 -65 -101 -89 -103 -252
-4 -346 58 -55 96 -64 263 -68 127 -3 163 -7 227 -28 229 -73 381 -278 388
-522 5 -179 -95 -365 -251 -467 -55 -36 -140 -72 -194 -83 l-32 -6 0 -99 c-2
-140 -25 -186 -109 -215 -71 -25 -129 -5 -179 61 -26 33 -28 43 -29 134 0 55
-3 101 -6 104 -3 3 -87 7 -186 8 -166 3 -184 5 -210 24 -77 57 -95 146 -47
221 47 71 52 72 416 74 358 1 370 3 436 69 46 46 64 85 70 156 4 52 1 69 -22
114 -29 57 -51 80 -111 112 -34 18 -60 22 -180 24 -216 5 -317 36 -439 134
-116 94 -195 261 -197 418 -4 249 166 471 413 541 l62 18 2 105 c1 120 13 150
74 189 43 28 89 34 136 19z"/>
<path d="M2233 4613 c-4 -2 -7 -81 -6 -175 1 -95 2 -202 2 -238 l1 -65 164 1
164 1 53 58 c68 73 162 166 207 205 32 27 34 31 23 61 -18 53 -59 98 -114 126
-51 26 -55 26 -269 27 -119 1 -220 0 -225 -1z"/>
<path d="M414 1891 c-23 -10 -50 -32 -61 -47 -11 -16 -94 -175 -183 -354 -192
-384 -197 -405 -118 -487 47 -49 115 -59 181 -28 42 20 54 37 132 193 31 63
59 111 62 109 3 -3 24 -53 48 -111 211 -517 609 -917 1074 -1078 60 -20 186
-53 237 -62 124 -22 306 -29 343 -13 106 45 132 176 51 257 -42 42 -51 44
-205 55 -444 31 -842 300 -1096 741 -71 124 -177 370 -164 382 2 3 84 -35 182
-83 191 -95 228 -104 290 -72 96 50 116 181 38 253 -43 39 -677 352 -726 359
-31 3 -56 0 -85 -14z"/>
</g>
</svg>
